PathFileType	4	(X/Y/Z)	/Users/niels/Desktop/University/Third Semester/Perception and Action/Exam/Gymnastics Motion Tracking/Code for Gym Tracking/Analyzed Data/Webcam_Backflip/id2_2_pure_Sports2D/id2_2_pure_Sports2D_px_person00.trc
DataRate	CameraRate	NumFrames	NumMarkers	Units	OrigDataRate	OrigDataStartFrame	OrigNumFrames
29.87551867219917	29.87551867219917	11	22	m	29.87551867219917	0	241
Frame#	Time	Hip			RHip			RKnee			RAnkle			RBigToe			RSmallToe			RHeel			LHip			LKnee			LAnkle			LBigToe			LSmallToe			LHeel			Neck			Head			Nose			RShoulder			RElbow			RWrist			LShoulder			LElbow			LWrist		
		X1	Y1	Z1	X2	Y2	Z2	X3	Y3	Z3	X4	Y4	Z4	X5	Y5	Z5	X6	Y6	Z6	X7	Y7	Z7	X8	Y8	Z8	X9	Y9	Z9	X10	Y10	Z10	X11	Y11	Z11	X12	Y12	Z12	X13	Y13	Z13	X14	Y14	Z14	X15	Y15	Z15	X16	Y16	Z16	X17	Y17	Z17	X18	Y18	Z18	X19	Y19	Z19	X20	Y20	Z20	X21	Y21	Z21	X22	Y22	Z22
0	0.0	0.9448128183180359	-0.5665781091016845	0.0	0.9427031464669358	-0.5665836305705246	0.0	0.9553622586877702	-0.6868125946939208	0.0	0.9321573099431488	-0.8028278385714416	0.0	0.9680135291424796	-0.8197113787839376	0.0	0.9553522276169693	-0.82603693993946	0.0	0.9216071599215033	-0.8218139877712642	0.0	0.9532501030701606	-0.5644721148285661	0.0	0.9616872527668795	-0.6847106721000432	0.0	0.9469236019006773	-0.7922828871078282	0.0	0.9891054577922548	-0.8049522287440964	0.0	0.9891113623438915	-0.8007318522489019	0.0	0.9384824020211355	-0.8091601873576617	0.0	0.9511404959964489	-0.4062661776842572	0.0	0.9764558403652687	-0.33243131648963714	0.0	0.9764543897437741	-0.370405164101897	0.0	0.9384820155689945	-0.4104865790647293	0.0	0.9448097163302202	-0.32399467400858795	0.0	0.9553608890921028	-0.25227746602501677	0.0	0.9490348412658638	-0.4125967648750566	0.0	0.9532534884760103	-0.33032707281810364	0.0	0.9595851448204696	-0.26493047085022875	0.0
1	0.03347222222222222	0.9447966327655354	-0.5648430245616861	0.0	0.943181825200558	-0.5644870225063268	0.0	0.9548696152029219	-0.6852263151444057	0.0	0.9326009867724292	-0.8015605153536353	0.0	0.9687695256534996	-0.8180984051776793	0.0	0.9552692691081233	-0.824382805535263	0.0	0.9222991475322597	-0.8201038932272471	0.0	0.9518447077575554	-0.562733571658333	0.0	0.9600777982522585	-0.6832849275242705	0.0	0.946584849271476	-0.7910726813098995	0.0	0.9883408100879694	-0.8039859369961767	0.0	0.9876966990096411	-0.7999441084980489	0.0	0.9374656538764496	-0.8081224821066211	0.0	0.9513200914495664	-0.40500453894387534	0.0	0.9765434654066038	-0.3309019710125812	0.0	0.9759334216726103	-0.369474267695599	0.0	0.9397374894829112	-0.41004629446615837	0.0	0.9443302280599088	-0.3241187895974429	0.0	0.9550308397634245	-0.2531922753103245	0.0	0.9492106690462397	-0.4119876645633028	0.0	0.9531950070680014	-0.33067247841426	0.0	0.9586625277254697	-0.26576574349976717	0.0
2	0.06694444444444445	0.9448543074777594	-0.5631886777070131	0.0	0.9436120852724429	-0.5625147726820797	0.0	0.9543898912697819	-0.683591974843169	0.0	0.93297688728522	-0.8003022752850996	0.0	0.9693623082021756	-0.8167203960291065	0.0	0.9551855800939527	-0.8229694945265745	0.0	0.9228483389937595	-0.8186043087541436	0.0	0.9507631849427725	-0.5611265001554616	0.0	0.9587193276177222	-0.6818532138871857	0.0	0.9463613662041712	-0.7899161596837933	0.0	0.9875250039074862	-0.8031824468489902	0.0	0.9863651453799486	-0.7992231597015775	0.0	0.936671093704613	-0.8071096384593471	0.0	0.9514780693960007	-0.4038227745226673	0.0	0.9763635684483826	-0.32942155804373696	0.0	0.9753777334218188	-0.36855595201304475	0.0	0.9408200441214588	-0.409541238244329	0.0	0.9441010849865544	-0.3242940739652008	0.0	0.9546883914149628	-0.25396879737329364	0.0	0.9494382584512475	-0.4114146280957888	0.0	0.9532294537279272	-0.3310744479445016	0.0	0.9578520174670482	-0.26642499778765844	0.0
3	0.10041666666666667	0.94505385600951	-0.5617098743549293	0.0	0.9439797186756748	-0.5608392660536288	0.0	0.9539843774294494	-0.6819212303253894	0.0	0.9332796552810887	-0.7991223737067655	0.0	0.9696459470176823	-0.815691662922436	0.0	0.9550290580823898	-0.8219213636493612	0.0	0.9232339907855959	-0.8174311026323771	0.0	0.9501938934599863	-0.5597909512462892	0.0	0.9577697385301092	-0.6804334167580863	0.0	0.9462333097261519	-0.7889158883804216	0.0	0.9867097369478289	-0.802593255444414	0.0	0.9851902900563462	-0.7986177604837694	0.0	0.9361825521992828	-0.8061781454346332	0.0	0.9515851132804852	-0.40281255711841313	0.0	0.9758429673828056	-0.3281191737180288	0.0	0.9748066392348677	-0.36773125431259	0.0	0.9416149110547084	-0.40901150861245816	0.0	0.9442248633202179	-0.32451641871315934	0.0	0.9543747299035771	-0.25448876577089913	0.0	0.9497253312907517	-0.4109200568481729	0.0	0.9534347725473917	-0.33150856822567326	0.0	0.9572876182080974	-0.2668310779805562	0.0
4	0.1338888888888889	0.9454239834522972	-0.5604978131890653	0.0	0.944329222575737	-0.5596214320214468	0.0	0.9537363004069087	-0.680338829705113	0.0	0.9335402298070855	-0.7981318402145257	0.0	0.9695768167825813	-0.8149823335955286	0.0	0.9547383472759311	-0.8212268822941161	0.0	0.9235515723605603	-0.8165963291065421	0.0	0.9501146754512019	-0.5588479939751382	0.0	0.9572415980395288	-0.6791114724489838	0.0	0.9461119407400462	-0.7881880493222384	0.0	0.9860378079786651	-0.8021856230424651	0.0	0.9842730986255454	-0.7981508838227008	0.0	0.9359683163771121	-0.8054300848362145	0.0	0.9516260651231194	-0.40202590438479113	0.0	0.9751218722004115	-0.3271181959225234	0.0	0.9742738421249568	-0.36710660095292524	0.0	0.942068944206006	-0.4085548846639551	0.0	0.9446477209040974	-0.3247192993031337	0.0	0.9541971811411329	-0.2546789164413614	0.0	0.9500035026381607	-0.41054246297149555	0.0	0.9538523876707304	-0.3318981687714695	0.0	0.9570788978581753	-0.2670241533636265	0.0
5	0.16736111111111113	0.945930344918965	-0.5596184801169622	0.0	0.9447090210629995	-0.5589017484373591	0.0	0.9536675592237246	-0.6790340952070782	0.0	0.9337594017590065	-0.7974302158205512	0.0	0.9692765064689914	-0.8144914501514339	0.0	0.9543802765615961	-0.8208141398826684	0.0	0.9238787857074335	-0.8160800599904297	0.0	0.9503630972929932	-0.5583500090426962	0.0	0.9570444372456333	-0.6780213243039547	0.0	0.9459998688116428	-0.7877992846474413	0.0	0.9856373325138166	-0.801929956034772	0.0	0.9837262053567215	-0.7978351347920609	0.0	0.9360061508133651	-0.8049871252576057	0.0	0.9516201423548072	-0.4014518096343071	0.0	0.9744186024064914	-0.3264351531754132	0.0	0.9738179942240799	-0.36672652145651774	0.0	0.9422078835306452	-0.40823853753198625	0.0	0.9452487778325175	-0.32486051819895967	0.0	0.95427404417395	-0.25458555569102115	0.0	0.9501675796474136	-0.4102969192072544	0.0	0.95443887870626	-0.33221163704705575	0.0	0.9572305352243842	-0.26713168783646224	0.0
6	0.20083333333333334	0.9465060754234669	-0.5590981779726869	0.0	0.945105409719385	-0.5585891195211525	0.0	0.9537129279741303	-0.6781419682813209	0.0	0.9339054808873131	-0.7970317570736088	0.0	0.9689455890739375	-0.8141072263651146	0.0	0.954104287477548	-0.8206073157170805	0.0	0.9241847455252724	-0.8158363312660012	0.0	0.9507816218985686	-0.5582427852419829	0.0	0.9570652225772813	-0.6772540841745801	0.0	0.9459887500046443	-0.7877169043700136	0.0	0.9855293732126721	-0.8018209477754094	0.0	0.9835792785277929	-0.7976765199525004	0.0	0.9362973647677358	-0.8048967359270441	0.0	0.9515900169319924	-0.40106093096112255	0.0	0.9739123216214507	-0.32602032659041547	0.0	0.9734669873134929	-0.36657740162888136	0.0	0.9421457793608536	-0.4080800130116247	0.0	0.9458917240188368	-0.32500971485387453	0.0	0.9546414329959251	-0.2544177589296867	0.0	0.9501758259617212	-0.4101703322017309	0.0	0.9550443307254233	-0.33249432693959335	0.0	0.9576350173819699	-0.2673140900367802	0.0
7	0.23430555555555554	0.9470859134223704	-0.5589312569312699	0.0	0.9454709402886308	-0.5585667754094327	0.0	0.9537646577667794	-0.6777054601392138	0.0	0.9339699714396638	-0.796853402780755	0.0	0.9687435519827015	-0.8137426107547601	0.0	0.9540335282485669	-0.8205468030006144	0.0	0.9243641072559833	-0.8157813812407252	0.0	0.9512598875821178	-0.5584056743201288	0.0	0.9571940666386236	-0.6768327424881866	0.0	0.9461331827101329	-0.7878130058336235	0.0	0.985638265320669	-0.8018592408085422	0.0	0.983744272961968	-0.7976646991108272	0.0	0.9367895884771547	-0.805073199931325	0.0	0.9515405602962496	-0.40086595768282435	0.0	0.9736972152243105	-0.3258675659725864	0.0	0.9732545757473764	-0.36665027105395775	0.0	0.9420277694973073	-0.4080827304123058	0.0	0.9464249732397871	-0.3253016606103433	0.0	0.9552168412078716	-0.25448969763723245	0.0	0.9500736936621891	-0.4101476605856446	0.0	0.9554650399027493	-0.33281858330474895	0.0	0.958152563521429	-0.2677021595683722	0.0
8	0.2677777777777778	0.9476072164803752	-0.5591020084028833	0.0	0.9457786250502697	-0.5587800607180727	0.0	0.9537253634581725	-0.6777027216743722	0.0	0.9339683928052059	-0.7968191273331158	0.0	0.9687702442810471	-0.8133929165578495	0.0	0.9542381227785324	-0.8206138583397552	0.0	0.9243099032918338	-0.8158729566025876	0.0	0.9516983994213631	-0.5587499977157792	0.0	0.9573355405416525	-0.6767654399963317	0.0	0.9464055902149902	-0.7879622065081543	0.0	0.9858723890924429	-0.8020513324386551	0.0	0.9840807136869322	-0.7977821237971668	0.0	0.9373563908802952	-0.8053717663170462	0.0	0.951491660507258	-0.4009243090366052	0.0	0.9737546060764092	-0.32603728423918354	0.0	0.9731936471316496	-0.3669450379760057	0.0	0.941962193910048	-0.4082688786658871	0.0	0.9467249389318871	-0.32580085057703073	0.0	0.9558626826884947	-0.25504749091865203	0.0	0.9499232495889014	-0.41024104854874766	0.0	0.9555455495905776	-0.333224026471017	0.0	0.9586734971932959	-0.26834239582107977	0.0
9	0.30125	0.9480215341058631	-0.5595671138574436	0.0	0.9460217401597629	-0.5592199899889067	0.0	0.9535455617367974	-0.6780685371743818	0.0	0.9338740595363852	-0.796947815573531	0.0	0.9690833066275124	-0.8131792104688389	0.0	0.954733199300256	-0.8208442831693211	0.0	0.9239548472907524	-0.8161719918845204	0.0	0.9520177722039217	-0.5592426871566054	0.0	0.9574555289607191	-0.6770616420980519	0.0	0.9467584823343994	-0.7881558663683244	0.0	0.986195279103744	-0.8024282281836761	0.0	0.984484550834171	-0.7980339723509011	0.0	0.937854068696207	-0.805712286018816	0.0	0.9515002556528287	-0.4012847702712209	0.0	0.9739594057043591	-0.32657786563267405	0.0	0.9732562443832213	-0.3674472958464883	0.0	0.9420245555331981	-0.4086634010964239	0.0	0.9467677808131719	-0.32643720687337874	0.0	0.9564743619313418	-0.2560702645390371	0.0	0.9497611874861233	-0.41047901262343617	0.0	0.9552489968756129	-0.33367227510153186	0.0	0.9591207328186564	-0.26914486531815696	0.0
10	0.33472222222222225	0.9483143483680886	-0.5602280182003314	0.0	0.9461980501226955	-0.5598619216504023	0.0	0.953248237300305	-0.6787021324423478	0.0	0.9336371744262923	-0.7972923293562192	0.0	0.9696527694323518	-0.8132846692253196	0.0	0.955431575304566	-0.8212903912386761	0.0	0.9233051859783945	-0.8167525027252398	0.0	0.9521950737420851	-0.5598472230053683	0.0	0.9575721967883546	-0.6776983266609727	0.0	0.9471649986720032	-0.7884825507493789	0.0	0.9865955333033567	-0.8030585611608705	0.0	0.9849158579001467	-0.7984774419753213	0.0	0.9381898791186671	-0.8061062425952265	0.0	0.9516080617059496	-0.40192918258495114	0.0	0.9741604564930848	-0.32741432637054224	0.0	0.9733966987717699	-0.36810957770839975	0.0	0.9422547900901503	-0.40923724876735174	0.0	0.9466165808214319	-0.32705613692941043	0.0	0.9570047994714517	-0.25727094067232026	0.0	0.9496128732035192	-0.41086537623428254	0.0	0.954682324567487	-0.33406286826314335	0.0	0.9594699267606189	-0.2698966933437363	0.0
